<svg xmlns="http://www.w3.org/2000/svg" viewBox="0 0 178.22 56.25"><defs><style>.cls-1{fill:#fff;}.cls-2{fill:#191d49;}</style></defs><g id="Layer_2" data-name="Layer 2"><g id="Layer_1-2" data-name="Layer 1"><path class="cls-1" d="M23.54,15.08A15.3,15.3,0,0,0,15.62,13a15.36,15.36,0,0,0-13.56,7.7,15.83,15.83,0,0,0-2.06,8,16.56,16.56,0,0,0,1.9,8,14.54,14.54,0,0,0,5.17,5.6,13.62,13.62,0,0,0,7.42,2.07,13.61,13.61,0,0,0,7.41-2.07,14.41,14.41,0,0,0,3.51-3.14v2.15a2.8,2.8,0,0,0,.82,2.07,2.77,2.77,0,0,0,2.06.82,2.8,2.8,0,0,0,2.07-.82,2.84,2.84,0,0,0,.82-2.07V28.75a15.73,15.73,0,0,0-2.07-8A15.27,15.27,0,0,0,23.54,15.08Zm.79,19.07a9.84,9.84,0,0,1-3.56,3.79,9.62,9.62,0,0,1-5.15,1.39,9.62,9.62,0,0,1-5.12-1.39,9.92,9.92,0,0,1-3.62-3.79,10.92,10.92,0,0,1-1.33-5.4,11.1,11.1,0,0,1,1.33-5.47,10,10,0,0,1,3.62-3.79,9.7,9.7,0,0,1,5.12-1.38,9.71,9.71,0,0,1,5.15,1.38,9.91,9.91,0,0,1,3.56,3.79,11.31,11.31,0,0,1,1.3,5.47A11.12,11.12,0,0,1,24.33,34.15Z"/><path class="cls-1" d="M61.65,0a2.82,2.82,0,0,0-2.06.79,2.79,2.79,0,0,0-.83,2.1V18.16A13.94,13.94,0,0,0,47.84,13a13.61,13.61,0,0,0-7.41,2.07,14.79,14.79,0,0,0-5.18,5.6,16.74,16.74,0,0,0-1.89,8,15.76,15.76,0,0,0,2.06,8A15.28,15.28,0,0,0,41,42.35a16.26,16.26,0,0,0,15.88,0,15.27,15.27,0,0,0,5.57-5.63,15.67,15.67,0,0,0,2.07-8V2.89a2.84,2.84,0,0,0-.8-2.1A2.8,2.8,0,0,0,61.65,0Zm-4,34.12a9.81,9.81,0,0,1-3.57,3.82,10.18,10.18,0,0,1-10.27,0,10,10,0,0,1-3.62-3.82,11.19,11.19,0,0,1-1.33-5.43,11,11,0,0,1,1.33-5.43,10.16,10.16,0,0,1,3.62-3.77,10.24,10.24,0,0,1,10.27,0,10,10,0,0,1,3.57,3.77A11.07,11.07,0,0,1,59,28.69,11.29,11.29,0,0,1,57.69,34.12Z"/><path class="cls-2" d="M95,13.64a2.77,2.77,0,0,0-2.12-.17,2.59,2.59,0,0,0-1.56,1.3L81.61,36,71.78,14.77a2.59,2.59,0,0,0-1.5-1.3,2.37,2.37,0,0,0-2,.17,2.73,2.73,0,0,0-1.44,1.44A2.3,2.3,0,0,0,67,17L79,42.27a3,3,0,0,0,2.72,1.87,2.77,2.77,0,0,0,2.6-1.87L96.28,17a2.46,2.46,0,0,0,.11-1.93A2.39,2.39,0,0,0,95,13.64Z"/><path class="cls-2" d="M118.31,15a14.22,14.22,0,0,0-7.59-2,15.44,15.44,0,0,0-7.92,2,14.26,14.26,0,0,0-5.4,5.55,16.66,16.66,0,0,0-2,8.18,15.79,15.79,0,0,0,2.06,8.12,14.72,14.72,0,0,0,5.72,5.54A17.34,17.34,0,0,0,117,43.46,15.49,15.49,0,0,0,121.81,41a2,2,0,0,0,.91-1.76,2.67,2.67,0,0,0-1-1.86,2.43,2.43,0,0,0-1.72-.6,3.24,3.24,0,0,0-1.84.65,11.1,11.1,0,0,1-3,1.5,10.63,10.63,0,0,1-3.6.65,11.38,11.38,0,0,1-5.71-1.41,10.21,10.21,0,0,1-5.15-7.41h21.5a2.61,2.61,0,0,0,1.87-.71,2.37,2.37,0,0,0,.73-1.78,17.75,17.75,0,0,0-1.67-7.9A12.69,12.69,0,0,0,118.31,15Zm-13.1,4.33a10.2,10.2,0,0,1,5.51-1.42,8.54,8.54,0,0,1,4.81,1.3,8.65,8.65,0,0,1,3.06,3.54,11.23,11.23,0,0,1,1,3.48H100.77a12.05,12.05,0,0,1,1-3A9.06,9.06,0,0,1,105.21,19.3Z"/><path class="cls-2" d="M147.22,14a9.24,9.24,0,0,0-5.06-1.11,12.5,12.5,0,0,0-6.23,1.59,12.36,12.36,0,0,0-3.28,2.66V16.07a2.85,2.85,0,0,0-.71-2.12,2.87,2.87,0,0,0-2.12-.71,2.83,2.83,0,0,0-2.09.74,2.82,2.82,0,0,0-.74,2.09V41.36a2.84,2.84,0,0,0,.74,2.13,2.9,2.9,0,0,0,2.09.7,2.8,2.8,0,0,0,2.12-.73,2.87,2.87,0,0,0,.71-2.1V24.84a5.9,5.9,0,0,1,1.67-4.3,8.84,8.84,0,0,1,4.56-2.32,15.92,15.92,0,0,1,6.5.11,3.18,3.18,0,0,0,1.36.06,2.2,2.2,0,0,0,1.1-.54,2.16,2.16,0,0,0,.66-1.21A2.34,2.34,0,0,0,147.22,14Z"/><path class="cls-1" d="M115.71,50.24v1.23a2.68,2.68,0,0,0-2-.86,2.21,2.21,0,0,0-2.27,2.29,2.21,2.21,0,0,0,2.27,2.28,2.72,2.72,0,0,0,2-.86v1.23a3,3,0,0,1-2,.67,3.4,3.4,0,0,1-2.43-.94,3.37,3.37,0,0,1,0-4.77,3.41,3.41,0,0,1,2.43-.95A3.07,3.07,0,0,1,115.71,50.24Z"/><path class="cls-1" d="M116.58,53.79a2.35,2.35,0,0,1,.74-1.76,2.64,2.64,0,0,1,3.6,0,2.45,2.45,0,0,1,0,3.51,2.64,2.64,0,0,1-3.6,0A2.34,2.34,0,0,1,116.58,53.79Zm3.57,1a1.47,1.47,0,0,0,.41-1,1.43,1.43,0,0,0-.41-1,1.36,1.36,0,0,0-1-.42,1.34,1.34,0,0,0-1,.42,1.43,1.43,0,0,0-.41,1,1.47,1.47,0,0,0,.41,1,1.38,1.38,0,0,0,1,.42A1.4,1.4,0,0,0,120.15,54.83Z"/><path class="cls-1" d="M122.62,56.11V51.46h1.1v.66a1.34,1.34,0,0,1,1.26-.76,1.28,1.28,0,0,1,1.3.82,1.54,1.54,0,0,1,1.53-.82c1,0,1.61.72,1.61,1.87v2.88h-1.11V53.39c0-.64-.3-1-.83-1a1,1,0,0,0-.92,1.08v2.68h-1.1V53.39c0-.64-.31-1-.83-1a1,1,0,0,0-.91,1.08v2.68Z"/><path class="cls-1" d="M130.54,56.11V51.46h1.1v.66a1.31,1.31,0,0,1,1.25-.76,1.29,1.29,0,0,1,1.31.82,1.52,1.52,0,0,1,1.52-.82c1,0,1.62.72,1.62,1.87v2.88h-1.11V53.39c0-.64-.31-1-.83-1a1,1,0,0,0-.93,1.08v2.68h-1.09V53.39c0-.64-.31-1-.84-1a1,1,0,0,0-.9,1.08v2.68Z"/><path class="cls-1" d="M138.4,51.46h1.12v2.71a.93.93,0,0,0,1,1,.94.94,0,0,0,1-1.06v-2.7h1.12v2.78a1.85,1.85,0,0,1-.61,1.49,2.32,2.32,0,0,1-1.54.5,2.27,2.27,0,0,1-1.52-.5,1.83,1.83,0,0,1-.6-1.46Z"/><path class="cls-1" d="M143.78,56.11V51.46h1.1v.66a1.51,1.51,0,0,1,1.41-.76,1.68,1.68,0,0,1,1.76,1.87v2.88H147V53.39a.94.94,0,0,0-1-1,1,1,0,0,0-1.08,1.08v2.68Z"/><path class="cls-1" d="M149.06,50.26a.66.66,0,0,1,.67-.66.65.65,0,0,1,.65.66.64.64,0,0,1-.65.65A.65.65,0,0,1,149.06,50.26Zm.11,5.85V51.46h1.11v4.65Z"/><path class="cls-1" d="M155.28,51.78v1.11a2,2,0,0,0-1.43-.57,1.49,1.49,0,0,0-1.08.41,1.48,1.48,0,0,0,0,2.09,1.46,1.46,0,0,0,1.08.42,2,2,0,0,0,1.43-.58v1.11a2.28,2.28,0,0,1-1.5.47,2.51,2.51,0,0,1-1.81-.7A2.5,2.5,0,0,1,152,52a2.51,2.51,0,0,1,1.81-.7A2.38,2.38,0,0,1,155.28,51.78Z"/><path class="cls-1" d="M159.9,52.13v-.67H161v4.65H159.9v-.67a1.49,1.49,0,0,1-1.49.78,2.24,2.24,0,0,1-1.66-.7,2.39,2.39,0,0,1-.67-1.73,2.36,2.36,0,0,1,.67-1.73,2.2,2.2,0,0,1,1.66-.7A1.48,1.48,0,0,1,159.9,52.13Zm-.34,2.67a1.43,1.43,0,0,0-1-2.44,1.34,1.34,0,0,0-1,.41,1.52,1.52,0,0,0,0,2,1.34,1.34,0,0,0,1,.41A1.36,1.36,0,0,0,159.56,54.8Z"/><path class="cls-1" d="M162.46,56.11V52.46h-.6v-1h.6V49.67h1.11v1.79h1v1h-1v3.65Z"/><path class="cls-1" d="M165.33,50.26a.66.66,0,1,1,.66.65A.64.64,0,0,1,165.33,50.26Zm.11,5.85V51.46h1.11v4.65Z"/><path class="cls-1" d="M167.51,53.79a2.35,2.35,0,0,1,.74-1.76,2.64,2.64,0,0,1,3.6,0,2.45,2.45,0,0,1,0,3.51,2.64,2.64,0,0,1-3.6,0A2.34,2.34,0,0,1,167.51,53.79Zm3.56,1a1.43,1.43,0,0,0,.42-1,1.4,1.4,0,0,0-.42-1,1.32,1.32,0,0,0-1-.42,1.37,1.37,0,0,0-1,.42,1.47,1.47,0,0,0-.4,1,1.5,1.5,0,0,0,.4,1,1.4,1.4,0,0,0,1,.42A1.36,1.36,0,0,0,171.07,54.83Z"/><path class="cls-1" d="M173.55,56.11V51.46h1.1v.66a1.52,1.52,0,0,1,1.41-.76,1.68,1.68,0,0,1,1.77,1.87v2.88h-1.11V53.39a.94.94,0,0,0-1-1,1,1,0,0,0-1.08,1.08v2.68Z"/><path class="cls-2" d="M176.15,20.71a15.65,15.65,0,0,0-27.05,0,15.83,15.83,0,0,0-2.06,8,16.67,16.67,0,0,0,1.89,8,14.65,14.65,0,0,0,5.18,5.6,14.32,14.32,0,0,0,14.83,0,14.41,14.41,0,0,0,3.51-3.14v2.15a2.8,2.8,0,0,0,.82,2.07,2.77,2.77,0,0,0,2.06.82,2.8,2.8,0,0,0,2.07-.82,2.84,2.84,0,0,0,.82-2.07V28.75A15.73,15.73,0,0,0,176.15,20.71Zm-3.71,18-2.76-3a5.66,5.66,0,0,1-.42.43,10.52,10.52,0,0,1-2.7,1.87,10.31,10.31,0,0,1-11.33-17,10.09,10.09,0,0,1,1.5-1.12,10.21,10.21,0,0,1,5.41-1.54,10.32,10.32,0,0,1,10.3,10.31Z"/><path class="cls-1" d="M162.14,37.42a8.71,8.71,0,0,1-5.84-15.18,7.78,7.78,0,0,1,1.27-.95,8.71,8.71,0,0,1,13.29,7.42v5.95l-1.28-1.37-.37.52a8.45,8.45,0,0,1-1,1.19,8.75,8.75,0,0,1-2.29,1.58A8.6,8.6,0,0,1,162.14,37.42Z"/></g></g></svg>