<svg xmlns="http://www.w3.org/2000/svg" viewBox="0 0 68.21 68.7"><defs><style>.cls-1{fill:#e14f23;}</style></defs><g id="Layer_2" data-name="Layer 2"><g id="Layer_1-2" data-name="Layer 1"><path class="cls-1" d="M63.69,16.84A33.3,33.3,0,0,0,34.16,0,33.88,33.88,0,0,0,16.77,4.52,33.36,33.36,0,0,0,4.52,16.84,34.31,34.31,0,0,0,0,34.41,36.45,36.45,0,0,0,4.15,51.93,32.06,32.06,0,0,0,15.47,64.18,29.77,29.77,0,0,0,31.69,68.7a29.77,29.77,0,0,0,16.22-4.52,31.43,31.43,0,0,0,7.67-6.87V62a6.32,6.32,0,1,0,12.63,0V34.41A34.41,34.41,0,0,0,63.69,16.84ZM55.58,56.18l-6-6.5c-.3.32-.61.63-.92.93a22.54,22.54,0,1,1-30.69-33,22.2,22.2,0,0,1,3.27-2.46A22.54,22.54,0,0,1,55.58,34.33Z"/></g></g></svg>